<svg xmlns="http://www.w3.org/2000/svg" viewBox="0 0 48 48"><defs><style>.cls-1{fill:#747575}.cls-2{fill:#7c7d7d}.cls-3{fill:#db5669}.cls-4{fill:#f26674}.cls-5{fill:#dad7e5}.cls-8{fill:#a87e6b}.cls-12{fill:#c6c3d8}</style></defs><g id="Flight_Delivery" data-name="Flight Delivery"><path class="cls-1" d="M13 25v4a1 1 0 0 1-2 0v-4a1 1 0 0 1 2 0z"/><path class="cls-2" d="M12 27v3a1 1 0 0 1-1-1v-3a1 1 0 0 1 1 1z"/><path class="cls-1" d="M37 25v4a1 1 0 0 1-2 0v-4a1 1 0 0 1 2 0z"/><path class="cls-2" d="M36 27v3a1 1 0 0 1-1-1v-3a1 1 0 0 1 1 1z"/><path class="cls-3" d="M11 13H1V3h6z"/><path class="cls-4" d="M10.6 12A7.6 7.6 0 0 1 3 4.4V3h4z"/><path class="cls-5" d="M45 25H26.5l6.5-6H21l-3 6h-5A12 12 0 0 1 1 13h36v4a2 2 0 0 0 2 2c3.71 0 5.31-.33 6.83 1.17C47.64 22 47.3 25 45 25z"/><path d="M43 19h-4a2 2 0 0 1-2-2v-4a6 6 0 0 1 6 6z" style="fill:#9fdbf3"/><path d="M42.91 18H40a2 2 0 0 1-2-2v-2.91A6 6 0 0 1 42.91 18z" style="fill:#b2e5fb"/><path class="cls-3" d="M33 19c-7.92 7.31-10.22 9.45-13 12h-5l6-12z"/><path class="cls-4" d="M33 19 21.09 30a2.53 2.53 0 0 1-2.26-3.66L22.5 19z"/><path class="cls-3" d="M26.5 13H18l-3-6h5z"/><path class="cls-4" d="M25.42 12h-.83a9 9 0 0 1-8.09-5H20z"/><path class="cls-8" d="M37 29v16H11V29h5l-1 2h5l2.17-2z"/><path d="M37 29v14H23a10 10 0 0 1-10-10v-4h3l-1 2h5l2.17-2z" style="fill:#be927c"/><path d="M27 29v5h-6v-3.92l1-.92c.24-.23-.53-.16 5-.16z" style="fill:#f6ccaf"/><path d="M27 29v4h-1.16A3.84 3.84 0 0 1 22 29.16c.24-.23-.53-.16 5-.16z" style="fill:#ffdec7"/><path class="cls-12" d="M17 42h-2a1 1 0 0 1 0-2h2a1 1 0 0 1 0 2z"/><path d="M28.67 23 33 19H21l-2 4h-6A10 10 0 0 1 3 13h34v4a2 2 0 0 0 2 2c3.71 0 5.31-.33 6.83 1.17A4 4 0 0 1 47 23z" style="fill:#edebf2"/><path class="cls-12" d="m19 23-1 2h-1.5l1-2H19z"/><path class="cls-5" d="M20.5 20 19 23h-1.5l1.5-3h1.5z"/><path class="cls-8" d="M15 31c4.71 0 4.13 0 4 .08L18 32h-5l1.5-3H16z"/></g></svg>